<?xml version="1.0" encoding="UTF-8" standalone="yes"?>
<!DOCTYPE svg PUBLIC "-//W3C//DTD SVG 1.1//EN" "http://www.w3.org/Graphics/SVG/1.1/DTD/svg11.dtd">

<svg width="182" height="202" viewBox="0 0 182 202" xmlns="http://www.w3.org/2000/svg" xmlns:xlink="http://www.w3.org/1999/xlink" version="1.1" baseProfile="full">
    <g transform="scale(1.000000,-1.000000) translate(0,-202)">
        <path d="M 64.998149 5.347527 C 63.849400 11.442586 61.731255 18.051892 61.437736 24.238453 C 61.337648 26.348009 61.672593 29.314392 62.165091 31.368867 C 63.818827 38.267492 67.847454 44.591318 69.678783 51.447919 C 70.212782 53.447241 70.118286 55.613043 70.641699 57.615329 C 71.999470 62.809403 77.640417 79.245278 80.044384 83.649421 C 81.387660 86.110344 90.334659 96.959197 92.655636 97.902553 C 93.617240 98.293395 103.011428 98.288656 104.114652 97.965928 C 106.708947 97.207015 109.225108 94.274974 111.592919 92.932047 C 114.922507 91.043639 118.598142 89.595728 122.055309 87.949212 C 127.359284 85.423132 133.355327 81.795574 139.031393 80.309200 C 147.985176 77.964501 157.748570 82.661409 166.548318 79.128633 C 179.208919 70.179149 178.713574 67.438013 178.791408 66.977597 C 179.134124 64.950285 181.481235 62.234122 181.279573 60.217034 C 181.107021 58.491112 178.717010 56.186221 177.949361 54.599175 C 177.410893 53.485940 177.291557 51.688460 176.518241 50.735418 C 174.373898 48.092708 162.253951 41.545383 158.841640 40.632070 C 155.617298 39.769067 151.792469 40.827114 148.616560 39.815359 C 141.209361 37.455632 133.610755 29.366714 126.319611 26.641012 C 123.733789 25.674336 120.556187 26.280210 117.974806 25.302695 C 110.532721 22.484531 107.712827 13.957723 102.353601 8.836204 C 95.416081 2.206396 83.169075 -0.479387 73.959303 1.794674 C 70.964426 2.534164 67.952541 4.143582 65.075955 5.268453 M 26.451036 31.464197 C 19.278299 37.483223 2.388132 49.920812 1.046403 59.500144 C 0.441890 63.816097 5.885589 90.251987 9.115151 92.779268 C 10.884418 94.163801 22.627638 95.945361 24.933601 95.318140 C 29.351738 94.116411 32.451783 89.189161 36.542331 87.411226 C 37.207798 87.121984 38.408838 87.401272 38.998964 86.989745 C 40.027043 86.272808 40.438556 84.217431 41.265668 83.256273 C 42.413974 81.921866 44.897794 80.945979 45.715333 79.404764 C 46.344939 78.217837 45.435884 76.235090 46.031407 75.028114 C 46.773159 73.524767 50.277742 72.670503 50.626160 70.880477 C 51.095558 68.468899 47.418643 65.386422 47.738443 62.996553 C 47.883708 61.910991 49.443616 60.946916 49.774902 59.892506 C 50.457891 57.718701 50.541244 52.046086 50.019901 49.824462 C 49.809234 48.926740 48.836714 48.102320 48.467865 47.251455 C 46.316645 42.288995 46.201612 34.198045 40.298967 31.814618 C 36.200800 30.159821 30.707018 31.113517 26.451036 31.464197 M 138.849142 98.533464 C 136.218578 102.648565 132.647511 106.895078 130.658219 111.346870 C 125.232916 123.488039 126.944948 144.190992 132.424150 156.141191 C 133.558603 158.615446 137.908316 168.531911 139.926882 169.760155 C 141.348634 170.625254 147.502543 170.751492 149.460946 171.007765 C 150.910182 171.197410 154.845830 172.456466 156.134790 171.881093 C 157.530511 171.258063 158.822211 167.590956 159.830595 166.378905 C 161.554572 164.306731 168.880508 158.631131 169.543346 156.824293 C 169.284088 152.241884 171.469172 149.143391 171.539309 145.989027 C 171.555386 145.265943 170.876000 144.477852 170.943946 143.759732 C 171.210260 140.945063 174.231644 138.185331 174.214207 135.298897 C 174.210384 134.665892 173.345085 134.030753 173.270064 133.398742 C 172.951479 130.714848 174.864981 127.693387 174.432479 125.030254 C 174.330275 124.400937 173.524039 123.754230 173.287731 123.156824 C 171.855507 119.536047 171.854690 115.338054 170.383990 111.733596 C 168.614021 107.395671 162.220136 96.961153 157.446641 95.785120 C 153.290188 94.761105 143.184017 97.548590 138.849142 98.533464 M 97.132930 130.097859 C 90.152969 137.299764 81.942283 144.243813 75.856354 152.206344 C 73.301970 155.548376 65.094513 165.941434 64.517887 169.621488 C 63.585922 175.569335 76.655799 199.487626 82.292036 201.674866 C 85.352008 202.862341 89.737927 200.485088 92.732429 200.107382 C 93.930417 199.956275 95.674006 200.602920 96.795463 200.186473 C 98.336247 199.614311 103.916067 194.953456 105.076408 193.618054 C 108.211218 190.010293 118.846013 169.546116 119.536921 165.131750 C 119.624233 164.573894 119.054343 163.967982 119.291709 163.455650 C 119.518575 162.965981 120.412528 163.103420 120.690868 162.641067 C 121.770289 160.848029 121.887357 147.933732 121.101628 145.903866 C 119.736281 142.376609 110.885276 133.736341 107.457696 132.110943 C 104.612877 130.761897 100.238718 130.703414 97.132930 130.097859 M 43.684101 101.410874 C 38.014534 104.237934 31.313241 106.592105 26.101701 110.178121 C 19.727037 114.564472 10.272164 124.476988 8.387198 132.120124 C 7.508049 135.684886 6.592607 155.504240 9.096049 157.718839 C 13.388054 158.412591 19.466044 171.249086 26.096125 170.860681 C 28.073120 170.744864 31.194235 168.494719 32.913323 167.526538 C 35.509407 166.064438 38.975843 164.782267 41.227147 162.844240 C 43.516327 160.873607 46.225972 157.084367 47.775564 154.484967 C 50.379898 150.116268 60.379431 125.311458 60.535293 120.980114 C 60.588321 119.506507 59.345104 117.998203 59.344556 116.521512 C 59.344134 115.382957 60.452395 114.044251 60.294491 112.924191 C 59.608172 108.055942 47.646116 103.343309 43.684101 101.410874 Z" transform="scale(1.000000,1.000000) translate(-0.232433,-0.410872)" fill="#ffffff" opacity="1.000000"></path>
    </g>
</svg>