<?xml version="1.0" encoding="UTF-8" standalone="yes"?>
<!DOCTYPE svg PUBLIC "-//W3C//DTD SVG 1.1//EN" "http://www.w3.org/Graphics/SVG/1.1/DTD/svg11.dtd">

<svg width="118" height="167" viewBox="0 0 118 167" xmlns="http://www.w3.org/2000/svg" xmlns:xlink="http://www.w3.org/1999/xlink" version="1.1" baseProfile="full">
    <g transform="scale(1.000000,-1.000000) translate(0,-167)">
        <path d="M 19.760907 6.630151 L 16.220667 11.927823 L 16.238632 12.917425 L 16.917792 13.611247 L 18.359750 18.151945 L 11.577622 15.371246 L 6.383471 20.085180 L 6.823894 13.444669 L 4.493718 11.599497 L 4.304927 11.015566 L 3.790802 11.051295 L 1.000000 9.280478 L 7.359536 7.686765 L 8.228540 5.750533 L 7.763373 5.211215 L 8.448324 4.769815 L 9.257644 1.000000 L 13.222912 7.118384 L 15.417598 6.953161 L 15.860457 7.354294 L 16.537972 6.866832 Z" transform="scale(1.000000,1.000000) translate(76.674927,22.639232)" fill="#ff8b6b" opacity="1.000000"></path>
        <path d="M 12.785703 8.936406 L 8.834049 9.352225 L 8.366807 9.755527 L 8.305071 10.357821 L 6.703409 12.860057 L 5.331462 8.499846 L 1.000000 7.890009 L 4.359067 5.452649 L 4.314257 3.599703 L 4.518891 3.276308 L 4.296709 3.044102 L 4.032538 1.000000 L 7.332995 3.412952 L 8.607803 3.057285 L 8.680820 2.619197 L 9.165611 2.771496 L 11.295620 1.655917 L 9.944027 5.996998 L 10.898565 6.983173 L 10.882895 7.355454 L 11.386801 7.485818 Z" transform="scale(1.000000,1.000000) translate(6.552707,76.907178)" fill="#ff8b6b" opacity="1.000000"></path>
        <path d="M 9.102664 1.000000 L 11.502096 5.586238 L 12.214704 5.958618 L 12.973771 5.744436 L 16.772682 6.483721 L 12.150145 10.237038 L 13.489599 15.775305 L 8.926139 12.876558 L 6.703498 13.819770 L 6.213654 13.727091 L 6.039017 14.107569 L 3.690104 15.408149 L 5.029066 10.253463 L 3.986716 8.880212 L 3.421109 9.001955 L 3.372981 8.341775 L 1.000000 6.297383 L 6.905999 5.851636 L 7.642430 4.222511 L 8.100824 4.062888 L 8.016959 3.390081 Z" transform="scale(1.000000,1.000000) translate(73.381495,133.514590)" fill="#ff8b6b" opacity="1.000000"></path>
        <path d="M 1.000000 6.970145 L 4.406295 9.015807 L 4.659504 9.578692 L 4.461118 10.150710 L 4.856228 13.095225 L 7.941096 9.722275 L 12.124790 10.998621 L 10.109321 7.370779 L 10.932427 5.710101 L 10.883509 5.330545 L 11.182962 5.213886 L 12.285628 3.472569 L 8.275021 4.266038 L 7.269694 3.405306 L 7.388512 2.977367 L 6.884769 2.910697 L 5.425171 1.000000 L 4.817075 5.505732 L 3.535398 5.996558 L 3.392388 6.340629 L 2.880581 6.246003 Z" transform="scale(1.000000,1.000000) translate(89.683258,91.094155)" fill="#ffffff" opacity="1.000000"></path>
        <path d="M 6.761377 1.000000 L 5.787333 6.083436 L 5.212494 6.645579 L 4.423933 6.659516 L 1.000000 8.463423 L 6.508765 10.723375 L 6.824278 16.412516 L 10.357151 12.320417 L 12.757349 12.582224 L 13.199605 12.352157 L 13.476591 12.666064 L 16.100799 13.233606 L 13.331530 8.684512 L 13.933294 7.068936 L 14.509957 7.022309 L 14.365554 6.376327 L 16.047676 3.734241 L 10.264408 5.011468 L 9.089264 3.664121 L 8.604321 3.643544 L 8.490491 2.975161 Z" transform="scale(1.000000,1.000000) translate(31.222913,41.186139)" fill="#ffffff" opacity="1.000000"></path>
        <path d="M 15.724474 11.774257 L 15.306774 11.696557 L 15.680374 11.930357 L 15.680074 11.931257 L 15.619774 12.032757 L 15.417574 12.103357 L 15.195174 12.081057 L 14.982574 12.225957 L 14.843374 12.291657 L 14.912774 12.507757 L 14.967874 12.615357 L 14.896374 12.801157 L 14.900474 12.944657 L 14.915674 13.164357 L 15.286574 13.323157 L 8.452574 37.492357 L 0.999974 34.941257 L 5.254874 26.814757 L 5.277874 26.828857 L 5.571874 26.825857 L 5.709374 26.692557 L 5.869374 26.642557 L 5.819074 26.423757 L 5.735974 26.268757 L 5.853374 26.174957 L 6.087974 26.273557 L 6.215374 26.622257 L 6.412674 26.569857 L 5.774474 25.822357 L 9.264274 19.156957 L 9.475974 19.261657 L 9.448574 19.076757 L 9.405574 18.887057 L 9.504974 18.697357 L 9.665174 18.744657 L 9.812274 18.731757 L 9.930974 18.806257 L 10.096674 18.790157 L 10.232274 18.619657 L 10.336074 18.483657 L 10.430974 18.281657 L 10.258074 17.871657 L 10.064374 17.629057 L 18.770974 0.999957 Z" transform="scale(1.000000,1.000000) translate(29.904026,94.537443)" fill="#6648d2" opacity="1.000000"></path>
        <path d="M 3.373176 13.903266 L 1.790376 11.255166 L 2.364176 10.677366 L 2.195476 10.724566 L 2.134776 10.489666 L 1.942076 10.313766 L 1.809676 10.231166 L 1.619676 10.156766 L 1.448176 10.174766 L 1.376376 10.315166 L 1.247076 10.346266 L 0.999976 9.932766 L 18.518776 3.051466 L 18.834176 3.452066 L 19.305876 3.526266 L 19.455976 3.356366 L 19.426176 3.205866 L 19.568676 3.143466 L 19.502176 2.925666 L 19.319876 2.791866 L 19.346976 2.726166 L 19.636176 2.612566 L 19.896176 2.909466 L 20.091276 2.873866 L 19.959676 2.485466 L 23.741676 0.999966 Z" transform="scale(1.000000,1.000000) translate(9.400624,85.984934)" fill="#6648d2" opacity="1.000000"></path>
        <path d="M 32.688148 28.471592 L 32.267848 28.189892 L 32.293648 28.069392 Z M 7.894148 3.193392 L 7.768848 3.315392 L 7.973248 3.378992 L 7.920948 3.515892 L 7.881348 3.761992 L 7.806348 3.956092 L 7.855248 4.225492 L 7.977848 4.335392 L 8.138148 4.290492 L 8.232148 4.350992 L 8.372548 4.481392 L 8.485848 4.530592 L 8.692348 4.640092 L 9.057348 4.487892 L 9.111948 4.434992 L 17.630448 13.119892 L 17.332848 13.467792 L 17.406648 13.655692 L 17.492348 13.913292 L 17.694948 13.845992 L 17.768848 13.929792 L 17.785548 14.203092 L 17.903548 14.365192 L 18.062348 14.290692 L 18.190148 14.329492 L 18.262548 14.329392 L 18.244148 14.530792 L 18.412348 14.822292 L 18.644348 14.812792 L 18.658448 14.668192 L 18.799548 14.700292 L 18.933248 14.802392 L 19.008148 14.917492 L 19.160148 15.010192 L 19.010148 15.207992 L 19.392548 14.916292 L 30.219448 25.954692 L 30.165148 26.008292 L 29.951048 26.406592 L 30.083148 26.566092 L 30.218548 26.632492 L 30.373148 26.578792 L 30.495948 26.607392 L 30.454648 26.829892 L 30.551948 27.001192 L 30.801448 27.053892 L 30.819048 27.204092 L 31.165048 26.918692 L 31.598048 27.360192 L 31.620348 27.495892 L 31.576948 27.646392 L 31.439048 27.634292 L 26.582948 24.378992 L 26.606248 24.325992 L 26.739148 24.275592 L 26.657348 24.040092 L 26.616148 23.916992 L 26.715848 23.772192 L 26.684948 23.603092 L 26.514848 23.382992 L 26.070248 23.238192 L 25.607148 23.724792 L 0.999948 7.229392 L 5.742748 0.999992 Z" transform="scale(1.000000,1.000000) translate(3.108652,41.113208)" fill="#6648d2" opacity="1.000000"></path>
        <path d="M 7.880798 1.106195 L 7.800198 1.814295 L 8.163598 2.078195 L 8.833098 2.069995 L 8.962398 1.825895 L 8.957498 1.686595 L 9.014998 1.523695 L 9.031398 1.489095 L 12.288698 2.573095 L 0.999998 24.526895 L 3.437798 15.786295 L 4.103298 15.851995 L 4.019898 15.727695 L 4.073798 15.563795 L 4.256198 15.305895 L 4.170598 15.163595 L 4.138698 15.044095 L 4.178598 14.894295 L 4.094498 14.757095 L 3.845398 14.682495 L 3.752398 14.658095 L 7.561698 0.999995 Z" transform="scale(1.000000,1.000000) translate(56.403002,40.143105)" fill="#6648d2" opacity="1.000000"></path>
        <path d="M 11.644644 17.071771 L 11.095744 17.658771 L 11.578244 18.311471 L 12.176644 18.319871 L 12.255644 18.131571 L 12.305444 18.069371 L 14.192944 20.919271 L 9.994044 23.600571 L 0.999944 0.999971 Z" transform="scale(1.000000,1.000000) translate(71.022456,100.406229)" fill="#6648d2" opacity="1.000000"></path>
        <path d="M 36.659342 2.011387 L 36.304842 2.067887 L 35.969542 2.925287 L 36.941442 3.082387 L 36.947342 3.130487 L 37.021142 3.122587 L 38.900242 8.894887 L 22.941142 12.331287 L 22.525042 11.570287 L 22.525642 11.765687 L 22.544342 11.923087 L 22.393542 11.998787 L 22.278542 12.072787 L 22.121942 12.111587 L 22.060342 11.991587 L 21.840042 12.041987 L 21.740942 12.292387 L 21.746442 12.581887 L 21.745942 12.588587 L 0.999942 17.055687 L 14.855842 10.758887 L 14.896842 10.804687 L 15.048542 10.843887 L 15.167642 10.960587 L 15.338442 10.860287 L 15.463242 10.676887 L 15.592242 10.753287 L 15.545542 11.081087 L 15.578442 11.259087 L 16.055042 11.167687 L 15.970742 10.252287 L 24.675742 6.296287 L 24.801442 6.565387 L 25.068342 6.627187 L 25.266642 6.642387 L 25.451742 6.593587 L 25.647142 6.615787 L 25.836842 6.535787 L 25.962842 6.495187 L 26.046142 6.334587 L 26.014142 6.165687 L 26.076142 5.986187 L 26.068242 5.801987 L 26.107042 5.645887 L 36.330142 0.999987 Z M 37.011742 3.093687 L 36.941442 3.082387 L 36.930442 2.992887 L 36.963742 2.946287 Z" transform="scale(1.000000,1.000000) translate(78.683758,61.505913)" fill="#6648d2" opacity="1.000000"></path>
        <path d="M 10.057578 19.562419 L 10.164645 18.751009 L 10.266961 18.584444 L 11.152100 15.781387 L 11.061679 15.752835 L 11.789776 13.447095 L 11.733850 12.758232 L 12.850960 7.567349 L 12.994903 6.245538 L 13.137673 6.265762 L 13.093631 4.437121 L 13.239967 4.209877 L 13.627806 2.666770 L 11.841988 2.102851 L 11.483875 2.213502 L 11.349440 2.717956 L 9.325742 7.945732 L 9.061617 7.837468 L 10.013341 1.674564 L 9.921729 1.571057 L 8.113306 1.000000 L 1.000000 17.149720 L 3.192713 17.842127 L 3.105858 17.566106 L 3.412801 16.594079 L 3.736408 16.199079 L 3.718560 16.019427 L 4.236089 15.089038 L 6.124166 10.763093 L 5.643598 18.268027 L 7.352041 15.376919 L 9.405499 11.550666 L 9.568493 11.428120 L 9.666052 11.434068 L 8.043331 19.249539 L 9.829149 19.813458 Z M 24.698678 8.593232 L 24.792447 8.200583 L 24.900568 7.184503 L 24.840348 6.981205 L 24.973623 6.908557 L 24.803469 6.782051 L 24.919062 6.537731 L 25.195415 6.201565 L 25.018491 5.977554 L 25.166821 5.955729 L 25.166117 5.281474 L 25.495623 3.967624 L 25.351436 3.966107 L 25.131567 4.119690 L 25.052149 3.888909 L 24.912105 3.864052 L 24.762258 4.030064 L 24.666269 3.892646 L 24.467114 3.929525 L 23.416781 3.743097 L 23.115978 3.810086 L 23.136692 3.693382 L 22.039678 3.498668 L 20.898608 3.416515 L 20.853443 3.264042 L 18.962843 2.928470 L 17.420838 2.799229 L 17.338387 2.856823 L 17.242398 2.719405 L 17.055672 2.686262 L 15.893561 7.198903 L 14.621704 14.364509 L 14.629177 15.136270 L 14.542177 15.626426 L 14.377275 15.741613 L 14.466089 16.190746 L 14.437089 16.354131 L 14.257133 16.418494 L 14.368177 16.606737 L 13.584880 19.934660 L 21.707456 21.376374 L 22.141534 21.236736 L 22.750534 17.805648 L 23.041942 17.520306 L 23.068315 17.236074 L 22.976875 16.666094 L 23.137634 16.574248 L 23.238985 15.460662 L 23.446425 15.377101 L 23.576776 14.100130 L 23.762392 13.868239 L 23.824535 13.518128 L 23.643469 13.317457 L 24.018843 12.830334 L 23.899513 12.688773 L 24.019249 12.421113 L 23.986513 12.198618 L 24.085942 11.638440 L 24.197392 11.417462 L 24.128887 11.260846 L 24.248623 10.993185 L 24.239227 10.774833 L 24.395843 10.706327 L 24.348052 10.433008 L 24.642194 8.775815 L 24.822151 8.711453 Z M 22.265582 8.329903 L 21.959417 9.647897 L 21.738032 9.945667 L 20.855603 14.917244 L 20.656449 14.954123 L 20.774263 15.239871 L 20.347548 17.643967 L 20.293285 18.356618 L 16.535426 17.689618 L 16.877361 16.305745 L 16.817141 16.102448 L 16.942130 16.076481 L 16.962844 15.959777 L 16.860086 15.724853 L 17.082987 15.282896 L 17.625701 12.225259 L 17.794746 12.086731 L 17.764636 11.985082 L 17.617822 11.862719 L 18.005219 11.714796 L 17.666426 11.317597 L 18.196603 9.822680 L 18.647768 7.687760 L 18.458416 7.533771 L 18.714054 7.314309 L 18.805197 6.800812 L 18.879064 5.706424 L 18.973944 5.578808 L 21.003071 6.083424 L 22.520219 6.352710 L 22.308934 7.543088 L 22.212538 7.814891 L 22.336011 7.933111 Z M 32.251533 23.383936 L 32.342735 22.570591 L 32.441780 22.402059 L 33.272013 19.582253 L 33.181051 19.555471 L 33.863985 17.235953 L 33.794617 16.548313 L 34.810150 11.336606 L 34.928254 10.012236 L 35.071392 10.029668 L 34.991649 8.202236 L 35.133520 7.972178 L 35.491152 6.421791 L 33.694663 5.892852 L 33.338779 6.010475 L 33.214220 6.517459 L 31.292993 11.783755 L 31.026804 11.680670 L 31.858001 5.500356 L 31.764385 5.398658 L 29.945156 4.863023 L 23.148569 21.148569 L 25.354385 21.798025 L 25.262156 21.523753 L 25.550060 20.545917 L 25.865891 20.144673 L 25.844538 19.965404 L 26.343800 19.025087 L 28.147043 14.663097 L 27.813119 22.175984 L 29.464780 19.252067 L 31.443130 15.386445 L 31.603700 15.260739 L 31.701357 15.264780 L 30.231561 23.110449 L 32.028050 23.639388 Z" transform="scale(1.000000,1.000000) translate(40.576869,72.201944)" fill="#ffffff" opacity="1.000000"></path>
    </g>
</svg>