<?xml version="1.0" encoding="UTF-8" standalone="yes"?>
<!DOCTYPE svg PUBLIC "-//W3C//DTD SVG 1.1//EN" "http://www.w3.org/Graphics/SVG/1.1/DTD/svg11.dtd">

<svg width="118" height="167" viewBox="0 0 118 167" xmlns="http://www.w3.org/2000/svg" xmlns:xlink="http://www.w3.org/1999/xlink" version="1.1" baseProfile="full">
    <g transform="scale(1.000000,-1.000000) translate(0,-167)">
        <path d="M 19.760907 6.630151 L 16.220667 11.927823 L 16.238631 12.917425 L 16.917792 13.611247 L 18.359750 18.151945 L 11.577622 15.371246 L 6.383471 20.085179 L 6.823894 13.444668 L 4.493718 11.599497 L 4.304927 11.015566 L 3.790802 11.051295 L 1.000000 9.280478 L 7.359536 7.686765 L 8.228540 5.750533 L 7.763373 5.211215 L 8.448324 4.769815 L 9.257644 1.000000 L 13.222911 7.118383 L 15.417597 6.953161 L 15.860457 7.354294 L 16.537972 6.866832 Z" transform="scale(1.000000,1.000000) translate(11.477606,83.114038)" fill="#6eff6b" opacity="1.000000"></path>
        <path d="M 12.574050 6.508374 L 9.384239 8.877673 L 9.187330 9.462648 L 9.440754 10.012506 L 9.335721 12.981593 L 5.935463 9.926773 L 1.896670 11.606540 L 3.547445 7.798786 L 2.565733 6.226635 L 2.577269 5.844109 L 2.267829 5.757322 L 1.000000 4.132284 L 5.069113 4.529360 L 5.985396 3.574341 L 5.825262 3.160083 L 6.320074 3.044422 L 7.585695 1.000000 L 8.631878 5.424623 L 9.955473 5.787636 L 10.131475 6.116060 L 10.631576 5.971787 Z" transform="scale(1.000000,1.000000) translate(3.671453,70.259202)" fill="#6eff6b" opacity="1.000000"></path>
        <path d="M 12.609112 3.163922 L 11.070877 7.025377 L 11.216919 7.654325 L 11.744582 8.004648 L 13.282068 10.705645 L 8.576880 9.853738 L 5.904058 13.567656 L 5.281977 9.270955 L 3.544381 8.410551 L 3.344520 8.063661 L 3.021366 8.156368 L 1.000000 7.406042 L 4.840676 5.524431 L 5.131787 4.170898 L 4.761665 3.890054 L 5.138639 3.515289 L 5.142314 1.000000 L 8.504239 4.364476 L 9.881989 3.960622 L 10.219087 4.156334 L 10.585052 3.753191 Z" transform="scale(1.000000,1.000000) translate(74.583768,135.743103)" fill="#6eff6b" opacity="1.000000"></path>
        <path d="M 13.176487 10.106643 L 9.020280 10.160922 L 8.494888 10.536245 L 8.372818 11.157738 L 6.464438 13.610764 L 5.453479 8.937168 L 1.000000 7.886600 L 4.732798 5.669655 L 4.863825 3.735135 L 5.108001 3.417874 L 4.898830 3.154680 L 4.819686 1.000000 L 8.026270 3.830030 L 9.388313 3.581758 L 9.506387 3.132400 L 9.996773 3.337533 L 12.322532 2.379652 L 10.498291 6.772189 L 11.398029 7.891012 L 11.346004 8.277317 L 11.858406 8.461432 Z" transform="scale(1.000000,1.000000) translate(83.392420,44.163551)" fill="#6eff6b" opacity="1.000000"></path>
        <path d="M 1.000000 6.970145 L 4.406295 9.015807 L 4.659504 9.578691 L 4.461118 10.150710 L 4.856228 13.095225 L 7.941096 9.722274 L 12.124790 10.998620 L 10.109320 7.370779 L 10.932427 5.710100 L 10.883509 5.330545 L 11.182961 5.213886 L 12.285628 3.472569 L 8.275021 4.266038 L 7.269694 3.405306 L 7.388512 2.977367 L 6.884769 2.910697 L 5.425171 1.000000 L 4.817075 5.505732 L 3.535398 5.996558 L 3.392388 6.340629 L 2.880581 6.246003 Z" transform="scale(1.000000,1.000000) translate(34.096478,45.259442)" fill="#ffffff" opacity="1.000000"></path>
        <path d="M 1.000000 9.471436 L 5.750827 11.525635 L 6.174797 12.208785 L 6.017242 12.981571 L 7.034967 16.715421 L 10.436737 11.828516 L 16.058730 12.755372 L 12.831010 8.418520 L 13.607547 6.132370 L 13.478958 5.650720 L 13.845502 5.448472 L 14.969106 3.010013 L 9.927385 4.725865 L 8.480939 3.787782 L 8.560591 3.214746 L 7.898666 3.215494 L 5.684679 1.000000 L 5.676178 6.922620 L 4.105883 7.777302 L 3.980538 8.246218 L 3.303382 8.212259 Z" transform="scale(1.000000,1.000000) translate(38.910550,116.884176)" fill="#ffffff" opacity="1.000000"></path>
        <path d="M 9.939535 2.840688 L 9.944335 2.973688 L 10.029735 3.120188 L 10.063135 3.279488 L 10.254335 3.304088 L 10.477435 3.203888 L 10.551035 3.296288 L 10.312835 3.536088 L 10.205135 3.686188 L 10.635535 3.890688 L 11.125135 3.084788 L 20.364835 4.987188 L 20.318835 5.225588 L 20.493235 5.412888 L 20.642335 5.464588 L 20.799335 5.471688 L 20.944035 5.607288 L 21.116135 5.609088 L 21.234235 5.676388 L 21.403735 5.569588 L 21.505635 5.459488 L 21.661635 5.348288 L 21.761335 5.274788 L 38.524935 8.726388 L 35.782535 16.110888 L 23.516935 10.782288 L 23.640435 9.930288 L 23.488635 10.026988 L 23.306835 9.939488 L 23.037135 9.903888 L 22.874235 9.902488 L 22.661635 9.945088 L 22.473235 10.043488 L 22.556235 10.215588 L 22.480035 10.328788 L 22.479735 10.331688 L 4.456135 2.501488 L 4.524635 1.913288 L 4.365935 1.693088 Z M 3.893035 1.595688 L 3.863735 1.618988 L 3.729235 1.632988 L 3.612035 1.763688 L 3.684135 2.017088 L 3.578835 2.085488 L 3.363735 1.945988 L 3.391135 1.540088 L 3.238135 1.460788 Z M 3.186835 1.450288 L 2.986235 1.862888 L 0.999935 0.999988 Z" transform="scale(1.000000,1.000000) translate(73.147665,93.323512)" fill="#486ed2" opacity="1.000000"></path>
        <path d="M 23.882151 5.350497 L 23.556151 5.458797 L 23.479351 5.297697 L 23.216851 4.933397 L 23.008851 4.979197 L 22.880351 5.065197 L 22.870051 5.234197 L 22.797051 5.334597 L 22.614151 5.196597 L 22.433051 5.184697 L 22.278551 5.415997 L 22.133551 5.388997 L 22.242951 5.894997 L 19.754051 6.721797 L 19.141251 5.994297 L 18.984751 6.193697 L 18.736151 6.423597 L 18.673051 6.724297 L 18.862451 6.753397 L 18.947751 6.880797 L 18.827451 6.969597 L 18.844851 7.023797 L 14.307051 8.531197 L 14.282751 8.459797 L 14.244551 8.340097 L 14.088151 8.244297 L 13.950251 8.250697 L 13.841151 8.098497 L 13.625051 8.060597 L 13.410451 8.027097 L 13.047451 8.258897 L 13.148451 8.916097 L 0.999951 12.951697 L 22.310451 0.999997 Z" transform="scale(1.000000,1.000000) translate(82.832649,57.476903)" fill="#486ed2" opacity="1.000000"></path>
        <path d="M 1.292690 1.010133 L 1.391790 1.672133 L 1.818290 1.826833 L 2.500490 1.622333 L 2.551490 1.357433 L 2.520790 1.217233 L 2.528690 1.052933 L 8.824690 1.271333 L 5.927990 31.719733 L 5.310490 31.755933 L 5.408890 31.867133 L 5.350390 32.053633 L 5.224490 32.334033 L 5.309890 32.514533 L 5.422190 32.602533 L 5.402990 32.758833 L 5.516290 32.877233 L 5.714690 32.930733 L 5.815090 32.907133 L 5.211690 39.249633 L 4.011290 28.347933 L 4.139390 28.334033 L 3.996790 28.216433 L 3.988590 28.141933 L 4.051690 28.087133 L 4.239490 27.916933 L 4.426890 27.814033 L 4.539990 27.584433 L 4.488890 27.439933 L 4.357690 27.358433 L 4.336090 27.240433 L 4.297790 27.047833 L 4.234590 26.940233 L 4.162390 26.740733 L 3.850790 26.616033 L 3.820990 26.619133 L 2.491690 14.546933 L 2.880890 14.476633 L 2.901190 14.301833 L 2.984890 14.052733 L 2.818190 13.945233 L 2.814690 13.834133 L 2.934490 13.626933 L 2.900390 13.463933 L 2.770990 13.387033 L 2.743590 13.300733 L 2.758990 13.284033 L 2.960590 13.069533 L 2.989690 12.766233 L 2.818290 12.676833 L 2.700990 12.735433 L 2.628590 12.593133 L 2.587890 12.429933 L 2.638790 12.285833 L 2.532790 12.108433 L 2.708290 12.052833 L 2.215590 12.039633 L 0.999990 0.999933 Z" transform="scale(1.000000,1.000000) translate(56.155410,22.941367)" fill="#486ed2" opacity="1.000000"></path>
        <path d="M 25.141458 10.812273 L 23.781758 10.521773 L 23.760058 10.206273 Z M 4.774858 1.877573 L 4.608558 2.135173 L 5.040958 2.978073 L 5.780058 2.353273 L 5.711258 2.299373 L 5.694058 2.280873 L 5.807158 2.330473 L 5.780058 2.353273 L 5.818458 2.383373 L 5.844258 2.346773 L 23.468758 10.078473 L 23.338858 10.098373 L 23.170258 10.131573 L 23.172858 9.992773 L 22.941758 9.952473 L 22.758458 10.078173 L 22.670358 10.284373 L 0.999958 5.655273 L 2.774258 0.999973 Z" transform="scale(1.000000,1.000000) translate(14.514342,64.137027)" fill="#486ed2" opacity="1.000000"></path>
        <path d="M 12.474568 21.676024 L 12.454468 21.684824 L 12.263868 21.949824 L 12.322868 22.109324 L 12.331768 22.252624 L 12.487268 22.348624 L 12.526068 22.360024 L 8.069868 23.822324 L 6.847068 19.874924 L 7.092268 19.792024 L 6.963168 19.671224 L 6.734668 19.512224 L 6.731768 19.502824 L 6.798768 19.411424 L 6.923068 19.308524 L 7.004668 19.183824 L 7.145168 19.164824 L 7.247468 19.024724 L 7.236968 18.819924 L 7.250468 18.666624 L 7.122768 18.415424 L 6.687268 18.245924 L 6.345468 18.218124 L 6.334868 18.221624 L 0.999968 0.999924 Z M 12.803568 22.268924 L 12.547768 22.352824 L 12.743368 22.160424 Z" transform="scale(1.000000,1.000000) translate(62.072132,109.378476)" fill="#486ed2" opacity="1.000000"></path>
        <path d="M 19.959906 13.629623 L 19.271906 13.102623 L 18.660006 13.643623 L 18.705006 14.232923 L 18.903406 14.302223 L 19.035406 14.335123 L 19.057506 14.349423 L 5.485106 25.175823 L 0.999906 18.188723 L 18.148906 9.716623 L 18.379306 10.087623 L 18.309706 9.663623 L 18.432206 9.618723 L 18.623706 9.730223 L 18.758606 9.898623 L 18.985606 9.939923 L 19.123806 9.964223 L 19.241506 9.802823 L 19.307606 9.709223 L 19.490906 9.649423 L 19.591006 9.541523 L 19.738106 9.404423 L 19.597706 9.000923 L 35.793106 0.999923 Z" transform="scale(1.000000,1.000000) translate(4.743994,100.849377)" fill="#486ed2" opacity="1.000000"></path>
        <path d="M 10.498433 9.077984 L 10.051608 7.542290 L 10.009477 6.974919 L 10.175780 6.653549 L 10.021533 5.856795 L 8.255520 6.083015 L 8.015604 6.053288 L 1.183509 6.560611 L 1.054890 7.069349 L 1.000000 8.570987 L 1.375665 13.630047 L 1.480759 13.764868 L 2.477170 13.738420 L 4.013800 13.624316 L 3.931294 12.513214 L 4.079223 12.264521 L 3.928603 12.156852 L 3.768858 10.005569 L 3.683893 9.821712 L 3.726611 8.796395 L 7.863693 8.489192 L 7.916116 12.716505 L 1.508375 16.377607 L 2.057828 23.777073 L 5.793022 23.499713 L 5.918246 23.585498 L 6.316623 23.508374 L 6.404163 23.406791 L 7.171191 23.492459 L 7.278860 23.341839 L 8.025758 23.476544 L 8.402250 23.424817 L 8.464395 23.301348 L 10.271603 23.309777 L 10.379272 23.159157 L 10.910715 22.953299 L 10.928037 21.906097 L 10.780928 21.845708 L 11.034771 21.422755 L 10.985619 20.760821 L 10.878769 20.602360 L 11.021432 20.282746 L 10.719495 16.216586 L 8.347607 16.606649 L 8.191017 17.378943 L 8.426247 20.546766 L 8.004229 20.625645 L 6.887861 20.637229 L 4.287409 20.830328 L 4.218947 19.908350 L 4.343236 19.661412 L 4.229364 19.408389 L 4.187233 18.841018 L 4.274773 18.739434 L 4.188053 18.531936 L 4.151189 18.035486 L 4.440960 17.776261 L 9.691255 14.533898 L 9.677211 14.344774 L 10.705924 13.792970 L 10.693635 13.627487 L 10.570167 13.565342 L 10.460981 10.174223 L 10.268231 9.499182 L 10.426692 9.392332 L 10.431023 9.130532 Z M 20.020566 2.871286 L 10.665949 4.809684 L 13.580760 18.876430 L 13.984170 21.407424 L 13.997138 21.937338 L 16.643358 21.389007 L 16.253967 20.210819 L 16.095240 19.444808 L 16.461829 19.344637 L 15.307448 13.773648 L 15.449858 13.526257 L 14.526353 9.069466 L 14.130479 7.626321 L 13.903788 7.116485 L 14.042226 6.966753 L 14.036579 6.822668 L 17.500881 6.250075 L 17.590595 6.449367 L 17.725060 6.397295 L 17.817073 6.257183 L 20.602567 5.679993 Z M 30.300969 3.221696 L 30.188879 3.148086 L 29.678205 3.253904 L 28.486425 3.694530 L 28.175043 3.710634 L 27.793400 4.322316 L 28.022602 5.194770 L 27.860951 5.349311 L 27.899431 5.535011 L 28.039543 5.627023 L 27.761206 6.386763 L 27.949417 6.710900 L 27.168140 6.679118 L 26.597448 6.845791 L 24.865297 7.132088 L 24.695701 7.481949 L 24.300877 6.861697 L 23.616833 5.429846 L 23.355636 4.636650 L 21.100892 5.321744 L 23.498090 12.450890 L 25.640150 17.647754 L 26.021382 18.319241 L 26.223398 19.294164 L 26.424365 19.446194 L 26.563853 20.119355 L 26.887366 20.512293 L 27.247897 21.551206 L 30.445568 20.743352 L 30.355641 19.842039 L 30.416282 19.200036 L 30.552209 18.687688 L 30.649031 18.570789 L 30.451824 17.619078 L 30.634175 17.097110 L 30.481932 16.596056 L 30.649229 16.585599 L 30.641269 14.093708 L 30.792462 13.771869 L 30.723860 11.921982 L 30.794746 10.745255 L 30.686629 10.573985 L 30.790134 8.736853 L 30.756251 7.872345 L 30.634329 7.050290 L 30.775065 6.561154 L 30.751016 6.445091 L 30.596474 6.283441 L 30.636415 6.008865 L 30.467854 4.494408 Z M 28.367925 16.792014 L 28.089375 16.849733 L 26.345901 11.473440 L 26.554813 11.430151 L 26.525953 11.290876 L 25.986207 10.555399 L 25.623377 9.855890 L 26.130078 9.847732 L 28.011124 9.579000 Z M 43.501477 16.487302 L 43.317274 16.254288 L 42.325034 10.459649 L 35.572411 11.615928 L 34.568169 5.751194 L 34.060365 1.100183 L 33.802704 1.000000 L 33.336035 1.224213 L 33.215206 1.220852 L 33.078374 1.124030 L 32.681801 1.336240 L 32.074299 1.440265 L 31.633716 1.395455 L 34.486404 18.055040 L 34.390222 18.336066 L 34.484964 18.608450 L 35.781428 18.314300 L 36.163278 18.297015 L 36.310832 18.175546 L 38.028515 17.953572 L 38.176070 17.832104 L 41.750987 17.219956 L 43.327837 16.877794 L 43.299830 16.714236 Z M 40.522055 13.413945 L 40.786119 14.956066 L 36.159754 15.748257 L 36.222008 14.847726 L 36.105980 14.170127 Z" transform="scale(1.000000,1.000000) translate(37.873246,72.436188)" fill="#ffffff" opacity="1.000000"></path>
    </g>
</svg>