<?xml version="1.0" encoding="UTF-8" standalone="yes"?>
<!DOCTYPE svg PUBLIC "-//W3C//DTD SVG 1.1//EN" "http://www.w3.org/Graphics/SVG/1.1/DTD/svg11.dtd">

<svg width="118" height="167" viewBox="0 0 118 167" xmlns="http://www.w3.org/2000/svg" xmlns:xlink="http://www.w3.org/1999/xlink" version="1.1" baseProfile="full">
    <g transform="scale(1.000000,-1.000000) translate(0,-167)">
        <path d="M 19.482301 15.499391 L 16.385226 9.931117 L 16.483698 8.946271 L 17.217072 8.310052 L 19.023880 3.901866 L 12.038075 6.121134 L 7.245103 1.000000 L 7.143416 7.654268 L 4.670820 9.303585 L 4.435120 9.870201 L 3.925626 9.792733 L 1.000000 11.330439 L 7.208486 13.436618 L 7.916942 15.437158 L 7.409425 15.936808 L 8.056145 16.432505 L 8.555836 20.255666 L 13.005951 14.480483 L 15.179835 14.823839 L 15.653870 14.460098 L 16.289429 15.001098 Z" transform="scale(1.000000,1.000000) translate(69.451838,141.753553)" fill="#6bb7ff" opacity="1.000000"></path>
        <path d="M 12.831425 5.405791 L 8.926858 4.669626 L 8.494016 4.229625 L 8.481522 3.624310 L 7.088943 1.000000 L 5.366606 5.234001 L 1.000000 5.489156 L 4.149380 8.191887 L 3.953864 10.035018 L 4.131484 10.373997 L 3.891141 10.587342 L 3.461434 12.603132 L 6.947288 10.466923 L 8.188870 10.925195 L 8.225976 11.367770 L 8.721542 11.255448 L 10.753593 12.540732 L 9.759955 8.104057 L 10.791585 7.198879 L 10.806277 6.826561 L 11.319109 6.737658 Z" transform="scale(1.000000,1.000000) translate(3.869460,89.184244)" fill="#6bb7ff" opacity="1.000000"></path>
        <path d="M 8.644244 15.800868 L 11.409026 11.425247 L 12.149566 11.112124 L 12.888653 11.387394 L 16.735030 10.959863 L 12.433549 6.842687 L 14.219414 1.431906 L 9.435235 3.949465 L 7.296830 2.828433 L 6.801081 2.880922 L 6.658005 2.487491 L 4.422845 1.000000 L 5.337656 6.246544 L 4.186994 7.530361 L 3.633193 7.362973 L 3.531478 8.017037 L 1.000000 9.861426 L 6.849930 10.786535 L 7.451260 12.470195 L 7.895123 12.666608 L 7.756762 13.330348 Z" transform="scale(1.000000,1.000000) translate(74.953450,35.421243)" fill="#6bb7ff" opacity="1.000000"></path>
        <path d="M 6.431700 12.608640 L 8.849271 9.455400 L 9.437169 9.267437 L 9.983098 9.529209 L 12.953402 9.469455 L 9.950756 6.023105 L 11.691813 2.010491 L 7.859409 3.602982 L 6.302410 2.597441 L 5.919758 2.603144 L 5.837694 2.292425 L 4.232173 1.000000 L 4.567231 5.074592 L 3.598381 5.976186 L 3.186615 5.809759 L 3.063433 6.302738 L 1.000000 7.537012 L 5.408123 8.650503 L 5.750933 9.979445 L 6.076634 10.160428 L 5.924764 10.658260 Z" transform="scale(1.000000,1.000000) translate(31.685825,54.849941)" fill="#ffffff" opacity="1.000000"></path>
        <path d="M 1.000000 9.917731 L 5.940761 11.460122 L 6.434326 12.094817 L 6.359041 12.879900 L 7.764374 16.485789 L 10.632508 11.267774 L 16.320852 11.597337 L 12.654305 7.624568 L 13.185734 5.269345 L 13.007130 4.803917 L 13.350333 4.564189 L 14.210857 2.020948 L 9.377901 4.258277 L 7.840697 3.477759 L 7.859550 2.899521 L 7.201386 2.969982 L 4.766366 1.000000 L 5.381714 6.890573 L 3.910173 7.905893 L 3.834914 8.385402 L 3.157947 8.422954 Z" transform="scale(1.000000,1.000000) translate(100.726310,109.665364)" fill="#ffffff" opacity="1.000000"></path>
        <path d="M 5.678837 12.040941 L 5.304537 12.241841 L 5.742137 12.190241 L 5.742537 12.191241 L 5.759137 12.308141 L 5.645537 12.489741 L 5.458137 12.611541 L 5.383137 12.857641 L 5.315637 12.996041 L 5.505137 13.121141 L 5.615337 13.170541 L 5.675937 13.360241 L 5.768937 13.469441 L 5.918337 13.631341 L 6.306937 13.523041 L 15.948737 36.274941 L 8.313037 38.210741 L 6.706437 30.036041 L 6.733237 30.032541 L 6.960637 29.846141 L 6.984437 29.656141 L 7.077937 29.517041 L 6.901637 29.377941 L 6.739937 29.309041 L 6.772637 29.162441 L 7.017437 29.092441 L 7.335037 29.284641 L 7.456137 29.120241 L 6.490437 28.936841 L 4.820037 20.437341 L 5.050637 20.386441 L 4.913537 20.259441 L 4.761237 20.138341 L 4.719937 19.928341 L 4.874537 19.864841 L 4.981137 19.762741 L 5.120337 19.746541 L 5.239537 19.630241 L 5.238437 19.412341 L 5.234337 19.241441 L 5.181937 19.024441 L 4.790437 18.812941 L 4.487437 18.745041 L 0.999937 0.999941 Z" transform="scale(1.000000,1.000000) translate(66.001563,95.323459)" fill="#acd248" opacity="1.000000"></path>
        <path d="M 22.939227 11.754467 L 21.146127 14.264867 L 20.386927 13.970267 L 20.497627 14.105967 L 20.306727 14.255567 L 20.222627 14.502567 L 20.199927 14.656967 L 20.207827 14.860867 L 20.293027 15.010767 L 20.450427 15.020467 L 20.530727 15.126467 L 20.250627 15.518567 L 5.428727 4.340067 L 5.605127 3.861667 L 5.421727 3.420767 L 5.198327 3.381667 L 5.085627 3.485867 L 4.957927 3.396967 L 4.807027 3.567567 L 4.788427 3.792967 L 4.718127 3.804167 L 4.470127 3.617167 L 4.587227 3.240167 L 4.454927 3.092567 L 4.192627 3.407867 L 0.999927 0.999967 Z" transform="scale(1.000000,1.000000) translate(82.179373,88.064133)" fill="#acd248" opacity="1.000000"></path>
        <path d="M 1.048593 26.158986 L 0.999993 26.186086 L 1.035793 26.155086 Z M 31.731793 3.560886 L 31.584193 3.654686 L 31.771193 3.758786 L 31.691993 3.882086 L 31.602693 4.114886 L 31.489493 4.289486 L 31.482093 4.563086 L 31.579593 4.695886 L 31.745793 4.684786 L 31.825293 4.763286 L 31.935993 4.919586 L 32.036793 4.991086 L 32.216493 5.140586 L 32.604893 5.066386 L 32.669193 5.025786 L 34.313093 7.594786 L 26.455293 11.979986 L 26.198093 11.601186 L 25.997393 11.622786 L 25.726393 11.637686 L 25.737793 11.850786 L 25.637593 11.900086 L 25.369493 11.844086 L 25.182093 11.915186 L 25.212093 12.087986 L 25.140993 12.200986 L 25.123593 12.264686 L 24.939893 12.195986 L 24.614393 12.281386 L 24.562393 12.507686 L 24.698193 12.559386 L 24.629993 12.687086 L 24.496293 12.789186 L 24.365493 12.830986 L 24.236093 12.953186 L 24.084793 12.756386 L 24.265393 13.202186 L 10.035593 21.143586 L 9.998093 21.076986 L 9.670293 20.765486 L 9.481593 20.850786 L 9.381893 20.963986 L 9.392993 21.127286 L 9.332993 21.238186 L 9.129293 21.139686 L 8.938393 21.188486 L 8.821793 21.415286 L 8.672193 21.392686 L 8.856393 21.801586 L 7.391693 22.618986 L 6.653193 22.018986 L 6.520393 22.256486 L 6.330993 22.525586 L 6.325493 22.831986 L 6.479293 22.880886 L 6.593693 22.987786 L 6.520193 23.105386 L 1.415293 25.954386 L 1.378593 25.909486 L 1.384793 25.852986 L 30.093093 0.999986 Z" transform="scale(1.000000,1.000000) translate(83.335207,48.417614)" fill="#acd248" opacity="1.000000"></path>
        <path d="M 5.899494 1.311050 L 5.242494 1.587650 L 5.190394 2.033750 L 5.525394 2.613450 L 5.801594 2.606650 L 5.920594 2.534150 L 6.090894 2.504550 L 6.129094 2.501850 L 10.463994 24.982650 L 5.052294 11.945350 L 5.616394 11.586150 L 5.474094 11.539850 L 5.415294 11.377650 L 5.399594 11.062150 L 5.244394 11.003050 L 5.145494 10.928750 L 5.084394 10.786250 L 4.933494 10.730350 L 4.691494 10.825350 L 4.603294 10.863650 L 0.999994 2.182950 L 5.839494 0.999950 Z" transform="scale(1.000000,1.000000) translate(50.351706,39.865750)" fill="#acd248" opacity="1.000000"></path>
        <path d="M 7.408659 17.867338 L 6.625459 17.687038 L 6.302859 18.431838 L 6.595859 18.953738 L 6.798359 18.927638 L 6.877159 18.939438 L 4.966659 22.792938 L 0.999959 19.778638 L 15.771259 0.999938 Z" transform="scale(1.000000,1.000000) translate(27.482141,99.271762)" fill="#acd248" opacity="1.000000"></path>
        <path d="M 5.260430 1.587955 L 5.039030 1.870555 L 5.376530 2.727055 L 6.195730 2.181155 L 6.126830 2.123055 L 6.119530 2.066255 L 6.254930 2.141655 L 6.195730 2.181155 L 6.232830 2.212455 L 6.281530 2.156455 L 26.306630 13.306255 L 26.117630 14.152655 L 26.246030 14.005355 L 26.335730 13.874755 L 26.499030 13.917255 L 26.634330 13.937455 L 26.777630 14.011555 L 26.744730 14.142455 L 26.943530 14.249855 L 27.183230 14.126955 L 27.369930 13.905655 L 27.374630 13.900955 L 38.110630 19.878655 L 15.944630 13.177355 L 15.944030 13.115855 L 15.855730 12.986355 L 15.843230 12.819955 L 15.648730 12.782755 L 15.433930 12.838355 L 15.387330 12.695855 L 15.638530 12.480255 L 15.731230 12.324755 L 15.312730 12.079155 L 14.772330 12.822955 L 5.629930 10.058955 L 5.712930 9.773655 L 5.553030 9.551255 L 5.414030 9.409055 L 5.242630 9.323655 L 5.110430 9.178055 L 4.915130 9.113155 L 4.793530 9.060655 L 4.625030 9.126455 L 4.537730 9.274455 L 4.372730 9.368555 L 4.257230 9.512155 L 4.125030 9.604055 L 0.999930 8.659255 L 4.204430 0.999955 Z" transform="scale(1.000000,1.000000) translate(-0.633230,57.000945)" fill="#acd248" opacity="1.000000"></path>
        <path d="M 12.494301 9.847086 L 12.606804 9.774109 L 12.564991 9.401631 L 12.649369 9.346899 L 13.009280 6.975574 L 13.225924 6.755126 L 13.078451 6.650985 L 13.132800 6.395951 L 13.338043 6.342737 L 13.201971 6.071362 L 13.184863 5.582959 L 13.655374 2.920112 L 11.012290 2.356860 L 10.813891 2.605435 L 10.838979 2.828922 L 9.600694 4.431353 L 7.830306 6.938380 L 5.848600 9.982084 L 5.030682 11.431718 L 5.376538 9.808772 L 5.584819 9.513828 L 5.612178 8.816760 L 6.094105 7.465190 L 6.110447 7.274769 L 6.214587 7.127297 L 7.150670 1.824788 L 6.781230 1.624870 L 5.877017 1.432178 L 5.736388 1.523399 L 5.565731 1.414318 L 5.055662 1.305620 L 4.693065 1.301063 L 1.961922 12.183549 L 1.270210 15.429441 L 1.000000 18.062260 L 1.604328 18.069855 L 2.786760 18.321836 L 3.151259 18.544939 L 5.710303 15.066799 L 5.869176 15.003704 L 5.842569 14.901082 L 6.216183 14.398992 L 6.298658 14.125714 L 7.437743 12.647570 L 9.498502 9.232908 L 9.639131 9.141687 L 7.156547 18.744060 L 7.246632 19.344966 L 9.681051 19.863750 L 10.576871 17.024921 L 10.720154 16.352558 L 11.276194 14.653213 L 11.388697 14.580237 L 11.438105 14.348387 L 11.313818 14.249188 Z M 18.674765 5.748499 L 18.540498 5.048114 L 18.770930 2.165231 L 18.627260 2.177528 L 18.697145 1.303211 L 18.797332 1.239876 L 15.796299 1.000000 L 15.398445 2.109695 L 15.513783 2.451850 L 15.391011 3.987812 L 14.920581 8.088132 L 14.999992 8.284729 L 14.828112 10.435076 L 14.643813 10.658156 L 14.766706 10.905791 L 14.616487 11.892592 L 14.562717 13.457851 L 14.626053 13.558038 L 14.476716 13.641226 L 14.484312 14.141237 L 14.605317 14.412502 L 14.397387 14.633694 L 14.503281 15.094000 L 14.293626 17.716951 L 14.389152 18.604489 L 16.350458 18.761259 L 17.100957 18.892590 L 17.658434 16.083411 L 18.274179 8.379970 L 18.479174 6.707893 L 18.501798 5.829799 Z M 28.911818 4.574007 L 28.759628 4.395374 L 26.641431 4.416313 L 21.513681 4.006446 L 20.524990 3.879857 L 20.301991 4.884622 L 19.927849 7.185270 L 19.769191 9.170206 L 19.636894 9.635255 L 19.656828 10.873468 L 19.481049 11.287479 L 19.299725 13.555977 L 19.471808 14.378291 L 19.286707 16.694049 L 18.976702 17.002207 L 19.130781 17.157209 L 18.813464 21.127081 L 26.587796 21.748492 L 27.007473 21.853380 L 27.464925 21.485665 L 27.366586 20.930838 L 27.882225 14.479797 L 27.260285 14.525210 L 26.817943 14.703883 L 26.607160 14.663254 L 26.473899 14.842851 L 26.057999 14.690702 L 25.798067 14.669926 L 25.290501 14.772042 L 25.050625 17.773076 L 25.113036 18.182344 L 25.028041 19.245703 L 21.341731 18.951052 L 21.441837 17.698652 L 22.048423 14.275088 L 21.933085 13.932932 L 22.354284 8.663401 L 22.245577 8.535806 L 22.449729 8.361875 L 22.340057 7.948829 L 22.372167 7.547116 L 22.519614 7.487558 L 22.524275 6.536684 L 23.313515 6.480863 L 26.338179 6.722628 L 26.009530 10.834280 L 28.347071 11.639433 Z M 40.763304 4.923853 L 39.760994 4.810612 L 39.389683 4.678841 L 39.137525 4.782334 L 38.165339 4.481856 L 31.788549 3.455893 L 31.619099 4.509098 L 31.283246 5.295427 L 28.824332 20.578610 L 28.579706 20.635293 L 37.277648 22.034707 L 37.843423 21.933651 L 38.242573 19.452767 L 37.808099 19.550938 L 32.910724 18.762998 L 31.872462 18.547931 L 31.742012 18.382880 L 32.005602 16.744561 L 32.276229 15.875706 L 32.536053 14.260791 L 32.766469 14.129790 L 35.317185 14.540175 L 36.948792 14.970758 L 37.161726 13.972569 L 37.074759 13.862535 L 37.469650 12.221330 L 32.852854 11.478533 L 33.403701 10.006482 L 33.712478 8.087308 L 33.756454 7.326050 L 34.020402 6.336069 L 40.371686 7.357928 Z" transform="scale(1.000000,1.000000) translate(39.267210,72.517697)" fill="#ffffff" opacity="1.000000"></path>
    </g>
</svg>